;TYPE=PLATED
;Layer: PTH_Through
;EasyEDA Pro Client v2.2.37.7, 2025-04-12 19:39:53
;Gerber Generator version 0.3
M48
METRIC,LZ,0000.00000
;Hole size 1 = 0.30500 METRIC
T01C0.30500
;Hole size 2 = 0.71120 METRIC
T02C0.71120
;Hole size 3 = 0.90002 METRIC
T03C0.90002
;Hole size 4 = 0.91440 METRIC
T04C0.91440
;Hole size 5 = 1.20000 METRIC
T05C1.20000
;Hole size 6 = 1.40000 METRIC
T06C1.40000
;Hole size 7 = 1.50002 METRIC
T07C1.50002
%
G05
G90
T01
X-87.36736Y22.098
X-88.38336Y23.114
X-96.14599Y35.60801
X-87.84298Y35.433
X-88.12936Y21.59
X-89.14536Y22.606
X-96.73298Y35.433
X-87.08098Y35.433
X-87.36736Y21.336
X-89.39936Y23.368
X-97.41599Y35.60801
X-86.31898Y35.433
T02
X-60.452Y44.831
X-62.992Y44.831
X-65.532Y44.831
X-68.072Y44.831
T03
X-69.33844Y20.51501
X-63.02845Y20.51742
X-59.59945Y20.55502
X-65.98945Y20.43741
X-95.52643Y20.51501
X-60.833Y25.527
X-82.82643Y20.35042
X-72.83343Y20.60442
T04
X-66.008Y37.31801
X-64.008Y37.31801
X-62.008Y37.31801
X-66.008Y34.81799
X-64.008Y34.81799
X-62.008Y34.81799
T05
X-106.68Y24.638
T06
X-109.22Y27.178
X-109.22Y22.098
X-104.14Y22.098
X-104.14Y27.178
T07
X-69.10804Y36.0682
X-58.90776Y36.0682
M30