G04 Layer: TopSilkscreenLayer*
G04 EasyEDA Pro v2.2.37.7, 2025-04-12 19:39:53*
G04 Gerber Generator version 0.3*
G04 Scale: 100 percent, Rotated: No, Reflected: No*
G04 Dimensions in millimeters*
G04 Leading zeros omitted, absolute positions, 4 integers and 5 decimals*
%FSLAX45Y45*%
%MOMM*%
%ADD10C,0.1524*%
%ADD11C,0.254*%
%ADD12C,0.2032*%
G75*


G04 Text Start*
G54D10*
G01X-7038924Y2271135D02*
G01X-7038924Y2206111D01*
G01X-7038924Y2271135D02*
G01X-7010984Y2271135D01*
G01X-7001840Y2268087D01*
G01X-6998792Y2265039D01*
G01X-6995490Y2258689D01*
G01X-6995490Y2252593D01*
G01X-6998792Y2246497D01*
G01X-7001840Y2243449D01*
G01X-7010984Y2240147D01*
G01X-7038924Y2240147D02*
G01X-7010984Y2240147D01*
G01X-7001840Y2237099D01*
G01X-6998792Y2234051D01*
G01X-6995490Y2227955D01*
G01X-6995490Y2218557D01*
G01X-6998792Y2212461D01*
G01X-7001840Y2209159D01*
G01X-7010984Y2206111D01*
G01X-7038924Y2206111D01*
G01X-6940626Y2271135D02*
G01X-6965264Y2206111D01*
G01X-6940626Y2271135D02*
G01X-6915734Y2206111D01*
G01X-6956120Y2227955D02*
G01X-6925132Y2227955D01*
G01X-6863918Y2271135D02*
G01X-6863918Y2206111D01*
G01X-6885508Y2271135D02*
G01X-6842328Y2271135D01*
G01X-6784416Y2261991D02*
G01X-6784416Y2206111D01*
G01X-6812102Y2234051D02*
G01X-6756476Y2234051D01*
G01X-6407925Y2271376D02*
G01X-6407925Y2206352D01*
G01X-6407925Y2271376D02*
G01X-6379985Y2271376D01*
G01X-6370841Y2268328D01*
G01X-6367793Y2265280D01*
G01X-6364491Y2258930D01*
G01X-6364491Y2252834D01*
G01X-6367793Y2246738D01*
G01X-6370841Y2243690D01*
G01X-6379985Y2240388D01*
G01X-6407925Y2240388D02*
G01X-6379985Y2240388D01*
G01X-6370841Y2237340D01*
G01X-6367793Y2234292D01*
G01X-6364491Y2228196D01*
G01X-6364491Y2218798D01*
G01X-6367793Y2212702D01*
G01X-6370841Y2209400D01*
G01X-6379985Y2206352D01*
G01X-6407925Y2206352D01*
G01X-6309627Y2271376D02*
G01X-6334265Y2206352D01*
G01X-6309627Y2271376D02*
G01X-6284735Y2206352D01*
G01X-6325121Y2228196D02*
G01X-6294133Y2228196D01*
G01X-6232919Y2271376D02*
G01X-6232919Y2206352D01*
G01X-6254509Y2271376D02*
G01X-6211329Y2271376D01*
G01X-6181103Y2234292D02*
G01X-6125477Y2234292D01*
G01X-6065025Y2275135D02*
G01X-6065025Y2210111D01*
G01X-6034799Y2275135D02*
G01X-6034799Y2210111D01*
G01X-6034799Y2275135D02*
G01X-5991619Y2210111D01*
G01X-5991619Y2275135D02*
G01X-5991619Y2210111D01*
G01X-5933707Y2265991D02*
G01X-5933707Y2210111D01*
G01X-5961393Y2238051D02*
G01X-5905767Y2238051D01*
G01X-6704025Y2263375D02*
G01X-6704025Y2198351D01*
G01X-6673799Y2263375D02*
G01X-6673799Y2198351D01*
G01X-6673799Y2263375D02*
G01X-6630619Y2198351D01*
G01X-6630619Y2263375D02*
G01X-6630619Y2198351D01*
G01X-6600393Y2226291D02*
G01X-6544767Y2226291D01*
G01X-9639181Y2271135D02*
G01X-9645277Y2268087D01*
G01X-9651627Y2261991D01*
G01X-9654675Y2255641D01*
G01X-9657723Y2246497D01*
G01X-9657723Y2231003D01*
G01X-9654675Y2221605D01*
G01X-9651627Y2215509D01*
G01X-9645277Y2209159D01*
G01X-9639181Y2206111D01*
G01X-9626735Y2206111D01*
G01X-9620639Y2209159D01*
G01X-9614289Y2215509D01*
G01X-9611241Y2221605D01*
G01X-9608193Y2231003D01*
G01X-9608193Y2246497D01*
G01X-9611241Y2255641D01*
G01X-9614289Y2261991D01*
G01X-9620639Y2268087D01*
G01X-9626735Y2271135D01*
G01X-9639181Y2271135D01*
G01X-9577967Y2271135D02*
G01X-9577967Y2206111D01*
G01X-9577967Y2271135D02*
G01X-9534787Y2206111D01*
G01X-9534787Y2271135D02*
G01X-9534787Y2206111D01*
G01X-9476875Y2261991D02*
G01X-9476875Y2206111D01*
G01X-9504561Y2234051D02*
G01X-9448935Y2234051D01*
G01X-6169838Y2772334D02*
G01X-6175934Y2769286D01*
G01X-6182284Y2763190D01*
G01X-6185332Y2756840D01*
G01X-6188380Y2747696D01*
G01X-6188380Y2732202D01*
G01X-6185332Y2722804D01*
G01X-6182284Y2716708D01*
G01X-6175934Y2710358D01*
G01X-6169838Y2707310D01*
G01X-6157392Y2707310D01*
G01X-6151296Y2710358D01*
G01X-6144946Y2716708D01*
G01X-6141898Y2722804D01*
G01X-6138850Y2732202D01*
G01X-6138850Y2747696D01*
G01X-6141898Y2756840D01*
G01X-6144946Y2763190D01*
G01X-6151296Y2769286D01*
G01X-6157392Y2772334D01*
G01X-6169838Y2772334D01*
G01X-6108624Y2772334D02*
G01X-6108624Y2707310D01*
G01X-6108624Y2772334D02*
G01X-6065444Y2707310D01*
G01X-6065444Y2772334D02*
G01X-6065444Y2707310D01*
G01X-6035218Y2735250D02*
G01X-5979592Y2735250D01*
G01X-9244409Y2212614D02*
G01X-9244409Y2147590D01*
G01X-9244409Y2212614D02*
G01X-9216469Y2212614D01*
G01X-9207325Y2209566D01*
G01X-9204277Y2206518D01*
G01X-9200975Y2200168D01*
G01X-9200975Y2194072D01*
G01X-9204277Y2187976D01*
G01X-9207325Y2184928D01*
G01X-9216469Y2181626D01*
G01X-9244409Y2181626D01*
G01X-9222819Y2181626D02*
G01X-9200975Y2147590D01*
G01X-9170749Y2200168D02*
G01X-9164653Y2203470D01*
G01X-9155509Y2212614D01*
G01X-9155509Y2147590D01*
G01X-8799909Y2212614D02*
G01X-8799909Y2147590D01*
G01X-8799909Y2212614D02*
G01X-8771969Y2212614D01*
G01X-8762825Y2209566D01*
G01X-8759777Y2206518D01*
G01X-8756475Y2200168D01*
G01X-8756475Y2194072D01*
G01X-8759777Y2187976D01*
G01X-8762825Y2184928D01*
G01X-8771969Y2181626D01*
G01X-8799909Y2181626D01*
G01X-8778319Y2181626D02*
G01X-8756475Y2147590D01*
G01X-8723201Y2197120D02*
G01X-8723201Y2200168D01*
G01X-8720153Y2206518D01*
G01X-8717105Y2209566D01*
G01X-8711009Y2212614D01*
G01X-8698563Y2212614D01*
G01X-8692213Y2209566D01*
G01X-8689165Y2206518D01*
G01X-8686117Y2200168D01*
G01X-8686117Y2194072D01*
G01X-8689165Y2187976D01*
G01X-8695515Y2178578D01*
G01X-8726249Y2147590D01*
G01X-8683069Y2147590D01*
G01X-10101580Y2228336D02*
G01X-10101580Y2163312D01*
G01X-10101580Y2228336D02*
G01X-10073640Y2228336D01*
G01X-10064496Y2225288D01*
G01X-10061448Y2222240D01*
G01X-10058146Y2215890D01*
G01X-10058146Y2209794D01*
G01X-10061448Y2203698D01*
G01X-10064496Y2200650D01*
G01X-10073640Y2197348D01*
G01X-10101580Y2197348D01*
G01X-10079990Y2197348D02*
G01X-10058146Y2163312D01*
G01X-10021824Y2228336D02*
G01X-9987788Y2228336D01*
G01X-10006330Y2203698D01*
G01X-9997186Y2203698D01*
G01X-9990836Y2200650D01*
G01X-9987788Y2197348D01*
G01X-9984740Y2188204D01*
G01X-9984740Y2181854D01*
G01X-9987788Y2172710D01*
G01X-9993884Y2166360D01*
G01X-10003282Y2163312D01*
G01X-10012680Y2163312D01*
G01X-10021824Y2166360D01*
G01X-10024872Y2169662D01*
G01X-10027920Y2175758D01*
G01X-8067314Y1956991D02*
G01X-8002290Y1956991D01*
G01X-8067314Y1956991D02*
G01X-8067314Y1984931D01*
G01X-8064266Y1994075D01*
G01X-8061218Y1997123D01*
G01X-8054868Y2000425D01*
G01X-8048772Y2000425D01*
G01X-8042676Y1997123D01*
G01X-8039628Y1994075D01*
G01X-8036326Y1984931D01*
G01X-8036326Y1956991D01*
G01X-8036326Y1978581D02*
G01X-8002290Y2000425D01*
G01X-8067314Y2061385D02*
G01X-8024134Y2030651D01*
G01X-8024134Y2076879D01*
G01X-8067314Y2061385D02*
G01X-8002290Y2061385D01*
G01X-7749814Y1956991D02*
G01X-7684790Y1956991D01*
G01X-7749814Y1956991D02*
G01X-7749814Y1984931D01*
G01X-7746766Y1994075D01*
G01X-7743718Y1997123D01*
G01X-7737368Y2000425D01*
G01X-7731272Y2000425D01*
G01X-7725176Y1997123D01*
G01X-7722128Y1994075D01*
G01X-7718826Y1984931D01*
G01X-7718826Y1956991D01*
G01X-7718826Y1978581D02*
G01X-7684790Y2000425D01*
G01X-7749814Y2067735D02*
G01X-7749814Y2036747D01*
G01X-7722128Y2033699D01*
G01X-7725176Y2036747D01*
G01X-7728224Y2045891D01*
G01X-7728224Y2055289D01*
G01X-7725176Y2064687D01*
G01X-7718826Y2070783D01*
G01X-7709682Y2073831D01*
G01X-7703332Y2073831D01*
G01X-7694188Y2070783D01*
G01X-7687838Y2064687D01*
G01X-7684790Y2055289D01*
G01X-7684790Y2045891D01*
G01X-7687838Y2036747D01*
G01X-7691140Y2033699D01*
G01X-7697236Y2030651D01*
G01X-7017845Y4828553D02*
G01X-7024195Y4834649D01*
G01X-7033339Y4837697D01*
G01X-7045785Y4837697D01*
G01X-7055183Y4834649D01*
G01X-7061279Y4828553D01*
G01X-7061279Y4822203D01*
G01X-7058231Y4816107D01*
G01X-7055183Y4813059D01*
G01X-7048833Y4810011D01*
G01X-7030291Y4803661D01*
G01X-7024195Y4800613D01*
G01X-7021147Y4797565D01*
G01X-7017845Y4791215D01*
G01X-7017845Y4782071D01*
G01X-7024195Y4775721D01*
G01X-7033339Y4772673D01*
G01X-7045785Y4772673D01*
G01X-7055183Y4775721D01*
G01X-7061279Y4782071D01*
G01X-6987619Y4825251D02*
G01X-6981523Y4828553D01*
G01X-6972379Y4837697D01*
G01X-6972379Y4772673D01*
G01X-11150486Y4825822D02*
G01X-11150486Y4779340D01*
G01X-11147438Y4770196D01*
G01X-11141088Y4763846D01*
G01X-11131944Y4760798D01*
G01X-11125594Y4760798D01*
G01X-11116450Y4763846D01*
G01X-11110354Y4770196D01*
G01X-11107052Y4779340D01*
G01X-11107052Y4825822D01*
G01X-11076826Y4813376D02*
G01X-11070730Y4816678D01*
G01X-11061586Y4825822D01*
G01X-11061586Y4760798D01*
G01X-11014380Y2924734D02*
G01X-11014380Y2878252D01*
G01X-11011332Y2869108D01*
G01X-11004982Y2862758D01*
G01X-10995838Y2859710D01*
G01X-10989488Y2859710D01*
G01X-10980344Y2862758D01*
G01X-10974248Y2869108D01*
G01X-10970946Y2878252D01*
G01X-10970946Y2924734D01*
G01X-10937672Y2909240D02*
G01X-10937672Y2912288D01*
G01X-10934624Y2918638D01*
G01X-10931576Y2921686D01*
G01X-10925480Y2924734D01*
G01X-10913034Y2924734D01*
G01X-10906684Y2921686D01*
G01X-10903636Y2918638D01*
G01X-10900588Y2912288D01*
G01X-10900588Y2906192D01*
G01X-10903636Y2900096D01*
G01X-10909986Y2890698D01*
G01X-10940720Y2859710D01*
G01X-10897540Y2859710D01*
G01X-9253029Y2604968D02*
G01X-9206547Y2604968D01*
G01X-9197403Y2608016D01*
G01X-9191053Y2614366D01*
G01X-9188005Y2623510D01*
G01X-9188005Y2629860D01*
G01X-9191053Y2639004D01*
G01X-9197403Y2645100D01*
G01X-9206547Y2648402D01*
G01X-9253029Y2648402D01*
G01X-9253029Y2684724D02*
G01X-9253029Y2718760D01*
G01X-9228391Y2700218D01*
G01X-9228391Y2709362D01*
G01X-9225343Y2715712D01*
G01X-9222041Y2718760D01*
G01X-9212897Y2721808D01*
G01X-9206547Y2721808D01*
G01X-9197403Y2718760D01*
G01X-9191053Y2712664D01*
G01X-9188005Y2703266D01*
G01X-9188005Y2693868D01*
G01X-9191053Y2684724D01*
G01X-9194355Y2681676D01*
G01X-9200451Y2678628D01*
G01X-7028181Y4046436D02*
G01X-7028181Y3999954D01*
G01X-7025133Y3990810D01*
G01X-7018783Y3984460D01*
G01X-7009639Y3981412D01*
G01X-7003289Y3981412D01*
G01X-6994145Y3984460D01*
G01X-6988049Y3990810D01*
G01X-6984747Y3999954D01*
G01X-6984747Y4046436D01*
G01X-6923787Y4046436D02*
G01X-6954521Y4003256D01*
G01X-6908293Y4003256D01*
G01X-6923787Y4046436D02*
G01X-6923787Y3981412D01*
G01X-8387723Y2254676D02*
G01X-8387723Y2208194D01*
G01X-8384675Y2199050D01*
G01X-8378325Y2192700D01*
G01X-8369181Y2189652D01*
G01X-8362831Y2189652D01*
G01X-8353687Y2192700D01*
G01X-8347591Y2199050D01*
G01X-8344289Y2208194D01*
G01X-8344289Y2254676D01*
G01X-8270883Y2245532D02*
G01X-8276979Y2251628D01*
G01X-8286377Y2254676D01*
G01X-8298823Y2254676D01*
G01X-8307967Y2251628D01*
G01X-8314063Y2245532D01*
G01X-8314063Y2239182D01*
G01X-8311015Y2233086D01*
G01X-8307967Y2230038D01*
G01X-8301871Y2226990D01*
G01X-8283329Y2220640D01*
G01X-8276979Y2217592D01*
G01X-8273931Y2214544D01*
G01X-8270883Y2208194D01*
G01X-8270883Y2199050D01*
G01X-8276979Y2192700D01*
G01X-8286377Y2189652D01*
G01X-8298823Y2189652D01*
G01X-8307967Y2192700D01*
G01X-8314063Y2199050D01*
G01X-8240657Y2254676D02*
G01X-8240657Y2189652D01*
G01X-8240657Y2254676D02*
G01X-8212971Y2254676D01*
G01X-8203573Y2251628D01*
G01X-8200525Y2248580D01*
G01X-8197477Y2242230D01*
G01X-8197477Y2236134D01*
G01X-8200525Y2230038D01*
G01X-8203573Y2226990D01*
G01X-8212971Y2223688D01*
G01X-8240657Y2223688D02*
G01X-8212971Y2223688D01*
G01X-8203573Y2220640D01*
G01X-8200525Y2217592D01*
G01X-8197477Y2211496D01*
G01X-8197477Y2202098D01*
G01X-8200525Y2196002D01*
G01X-8203573Y2192700D01*
G01X-8212971Y2189652D01*
G01X-8240657Y2189652D01*
G01X-8139565Y2245532D02*
G01X-8139565Y2189652D01*
G01X-8167251Y2217592D02*
G01X-8111625Y2217592D01*
G01X-7388423Y2280076D02*
G01X-7388423Y2233594D01*
G01X-7385375Y2224450D01*
G01X-7379025Y2218100D01*
G01X-7369881Y2215052D01*
G01X-7363531Y2215052D01*
G01X-7354387Y2218100D01*
G01X-7348291Y2224450D01*
G01X-7344989Y2233594D01*
G01X-7344989Y2280076D01*
G01X-7271583Y2270932D02*
G01X-7277679Y2277028D01*
G01X-7287077Y2280076D01*
G01X-7299523Y2280076D01*
G01X-7308667Y2277028D01*
G01X-7314763Y2270932D01*
G01X-7314763Y2264582D01*
G01X-7311715Y2258486D01*
G01X-7308667Y2255438D01*
G01X-7302571Y2252390D01*
G01X-7284029Y2246040D01*
G01X-7277679Y2242992D01*
G01X-7274631Y2239944D01*
G01X-7271583Y2233594D01*
G01X-7271583Y2224450D01*
G01X-7277679Y2218100D01*
G01X-7287077Y2215052D01*
G01X-7299523Y2215052D01*
G01X-7308667Y2218100D01*
G01X-7314763Y2224450D01*
G01X-7241357Y2280076D02*
G01X-7241357Y2215052D01*
G01X-7241357Y2280076D02*
G01X-7213671Y2280076D01*
G01X-7204273Y2277028D01*
G01X-7201225Y2273980D01*
G01X-7198177Y2267630D01*
G01X-7198177Y2261534D01*
G01X-7201225Y2255438D01*
G01X-7204273Y2252390D01*
G01X-7213671Y2249088D01*
G01X-7241357Y2249088D02*
G01X-7213671Y2249088D01*
G01X-7204273Y2246040D01*
G01X-7201225Y2242992D01*
G01X-7198177Y2236896D01*
G01X-7198177Y2227498D01*
G01X-7201225Y2221402D01*
G01X-7204273Y2218100D01*
G01X-7213671Y2215052D01*
G01X-7241357Y2215052D01*
G01X-7167951Y2242992D02*
G01X-7112325Y2242992D01*
G04 Text End*

G04 PolygonModel Start*
G54D11*
G01X-6833845Y2151501D02*
G01X-6833845Y1951501D01*
G01X-6833845Y1951501D02*
G01X-7033844Y1951501D01*
G01X-7033844Y1951501D02*
G01X-7033844Y2151501D01*
G01X-7033844Y2151501D02*
G01X-6833845Y2151501D01*
G01X-6202845Y2151742D02*
G01X-6202845Y1951743D01*
G01X-6202845Y1951743D02*
G01X-6402845Y1951743D01*
G01X-6402845Y1951743D02*
G01X-6402845Y2151742D01*
G01X-6402845Y2151742D02*
G01X-6202845Y2151742D01*
G01X-5859945Y2155501D02*
G01X-5859945Y1955502D01*
G01X-5859945Y1955502D02*
G01X-6059945Y1955502D01*
G01X-6059945Y1955502D02*
G01X-6059945Y2155501D01*
G01X-6059945Y2155501D02*
G01X-5859945Y2155501D01*
G01X-6498946Y2143741D02*
G01X-6498946Y1943742D01*
G01X-6498946Y1943742D02*
G01X-6698945Y1943742D01*
G01X-6698945Y1943742D02*
G01X-6698945Y2143741D01*
G01X-6698945Y2143741D02*
G01X-6498946Y2143741D01*
G01X-9452643Y2151501D02*
G01X-9452643Y1951501D01*
G01X-9452643Y1951501D02*
G01X-9652643Y1951501D01*
G01X-9652643Y1951501D02*
G01X-9652643Y2151501D01*
G01X-9652643Y2151501D02*
G01X-9452643Y2151501D01*
G01X-5983300Y2652700D02*
G01X-5983300Y2452700D01*
G01X-5983300Y2452700D02*
G01X-6183300Y2452700D01*
G01X-6183300Y2452700D02*
G01X-6183300Y2652700D01*
G01X-6183300Y2652700D02*
G01X-5983300Y2652700D01*
G54D10*
G01X-9063279Y1965940D02*
G01X-8967391Y1965940D01*
G01X-8967391Y1965940D02*
G01X-8967391Y2098060D01*
G01X-8967391Y2098060D02*
G01X-9063279Y2098060D01*
G01X-9148521Y1965940D02*
G01X-9244409Y1965940D01*
G01X-9244409Y1965940D02*
G01X-9244409Y2098060D01*
G01X-9244409Y2098060D02*
G01X-9148521Y2098060D01*
G01X-8618779Y1965940D02*
G01X-8522891Y1965940D01*
G01X-8522891Y1965940D02*
G01X-8522891Y2098060D01*
G01X-8522891Y2098060D02*
G01X-8618779Y2098060D01*
G01X-8704021Y1965940D02*
G01X-8799909Y1965940D01*
G01X-8799909Y1965940D02*
G01X-8799909Y2098060D01*
G01X-8799909Y2098060D02*
G01X-8704021Y2098060D01*
G01X-9920450Y1981661D02*
G01X-9824563Y1981661D01*
G01X-9824563Y1981661D02*
G01X-9824563Y2113782D01*
G01X-9824563Y2113782D02*
G01X-9920450Y2113782D01*
G01X-10005692Y1981661D02*
G01X-10101580Y1981661D01*
G01X-10101580Y1981661D02*
G01X-10101580Y2113782D01*
G01X-10101580Y2113782D02*
G01X-10005692Y2113782D01*
G01X-7820640Y2138121D02*
G01X-7820640Y2234009D01*
G01X-7820640Y2234009D02*
G01X-7952760Y2234009D01*
G01X-7952760Y2234009D02*
G01X-7952760Y2138121D01*
G01X-7820640Y2052879D02*
G01X-7820640Y1956991D01*
G01X-7820640Y1956991D02*
G01X-7952760Y1956991D01*
G01X-7952760Y1956991D02*
G01X-7952760Y2052879D01*
G01X-7503140Y2138121D02*
G01X-7503140Y2234009D01*
G01X-7503140Y2234009D02*
G01X-7635260Y2234009D01*
G01X-7635260Y2234009D02*
G01X-7635260Y2138121D01*
G01X-7503140Y2052879D02*
G01X-7503140Y1956991D01*
G01X-7503140Y1956991D02*
G01X-7635260Y1956991D01*
G01X-7635260Y1956991D02*
G01X-7635260Y2052879D01*
G54D11*
G01X-5795264Y4133088D02*
G01X-5795264Y4717125D01*
G01X-5795264Y4717125D02*
G01X-5796201Y4718063D01*
G01X-5796201Y4718063D02*
G01X-7056199Y4718063D01*
G01X-7056199Y4718063D02*
G01X-7056199Y4133088D01*
G54D12*
G01X-6108700Y4133088D02*
G01X-6108700Y4292600D01*
G01X-6108700Y4292600D02*
G01X-6235700Y4292600D01*
G01X-6235700Y4292600D02*
G01X-6235700Y4133088D01*
G01X-6362700Y4133088D02*
G01X-6362700Y4292600D01*
G01X-6362700Y4292600D02*
G01X-6489700Y4292600D01*
G01X-6489700Y4292600D02*
G01X-6489700Y4133088D01*
G01X-6616700Y4133088D02*
G01X-6616700Y4292600D01*
G01X-6616700Y4292600D02*
G01X-6743700Y4292600D01*
G01X-6743700Y4292600D02*
G01X-6743700Y4133088D01*
G01X-7057136Y4133088D02*
G01X-6045200Y4133088D01*
G01X-6045200Y4133088D02*
G01X-5795264Y4133088D01*
G54D11*
G01X-10985411Y4684311D02*
G01X-10985411Y4686198D01*
G01X-10985411Y4484312D02*
G01X-10985411Y4488083D01*
G01X-10985411Y4284312D02*
G01X-10985411Y4288086D01*
G01X-10985411Y4084312D02*
G01X-10985411Y4088084D01*
G01X-10985411Y3884313D02*
G01X-10985411Y3888087D01*
G01X-10985411Y3684313D02*
G01X-10985411Y3688085D01*
G01X-10985411Y3484314D02*
G01X-10985411Y3488085D01*
G01X-10985411Y3284314D02*
G01X-10985411Y3288086D01*
G01X-10985411Y3086202D02*
G01X-10985411Y3088086D01*
G01X-9385414Y3088086D02*
G01X-9385414Y3086202D01*
G01X-9385414Y3086202D02*
G01X-10985411Y3086202D01*
G01X-9385414Y3288086D02*
G01X-9385414Y3284314D01*
G01X-9385414Y3488085D02*
G01X-9385414Y3484314D01*
G01X-9385414Y3688085D02*
G01X-9385414Y3684313D01*
G01X-9385414Y3888087D02*
G01X-9385414Y3884313D01*
G01X-9385414Y4088084D02*
G01X-9385414Y4084312D01*
G01X-9385414Y4288086D02*
G01X-9385414Y4284312D01*
G01X-9385414Y4488083D02*
G01X-9385414Y4484312D01*
G01X-10985411Y4686198D02*
G01X-9385414Y4686198D01*
G01X-9385414Y4686198D02*
G01X-9385414Y4684311D01*
G01X-10519430Y2781300D02*
G01X-10816570Y2781300D01*
G01X-10337800Y2306429D02*
G01X-10337800Y2621171D01*
G01X-10825371Y2133600D02*
G01X-10510629Y2133600D01*
G01X-10985500Y2612370D02*
G01X-10985500Y2315230D01*
G01X-8674618Y2762306D02*
G01X-8674618Y2610302D01*
G01X-8674618Y2610302D02*
G01X-7657102Y2610302D01*
G01X-7657102Y2610302D02*
G01X-7657102Y2762306D01*
G01X-7276102Y4423415D02*
G01X-7276102Y4441185D01*
G01X-7276102Y4169415D02*
G01X-7276102Y4187187D01*
G01X-7276102Y3915415D02*
G01X-7276102Y3933187D01*
G01X-7276102Y3661415D02*
G01X-7276102Y3679187D01*
G01X-7276102Y3407415D02*
G01X-7276102Y3425187D01*
G01X-7276102Y3153418D02*
G01X-7276102Y3171187D01*
G01X-9056098Y2917190D02*
G01X-9056098Y2762306D01*
G01X-9056098Y2762306D02*
G01X-7276102Y2762306D01*
G01X-7276102Y2762306D02*
G01X-7276102Y2917190D01*
G01X-9056098Y3171187D02*
G01X-9056098Y3153418D01*
G01X-9056098Y3425187D02*
G01X-9056098Y3407415D01*
G01X-9056098Y3679187D02*
G01X-9056098Y3661415D01*
G01X-9056098Y3933187D02*
G01X-9056098Y3915415D01*
G01X-9056098Y4187187D02*
G01X-9056098Y4169415D01*
G01X-9056098Y4441185D02*
G01X-9056098Y4423415D01*
G01X-7276102Y4677413D02*
G01X-7276102Y4832302D01*
G01X-7276102Y4832302D02*
G01X-9056098Y4832302D01*
G01X-9056098Y4832302D02*
G01X-9056098Y4677413D01*
G01X-6340996Y2786802D02*
G01X-6640995Y2786802D01*
G01X-6640995Y2786802D02*
G01X-6640995Y3286803D01*
G01X-6340996Y2786802D02*
G01X-6340996Y3286803D01*
G01X-6930801Y3460046D02*
G01X-6930801Y3286803D01*
G01X-6930801Y3926802D02*
G01X-6930801Y3753554D01*
G01X-5870799Y3460046D02*
G01X-5870799Y3286803D01*
G01X-5870799Y3926802D02*
G01X-5870799Y3753554D01*
G01X-6930801Y3286803D02*
G01X-5870799Y3286803D01*
G01X-6930801Y3926802D02*
G01X-5870799Y3926802D01*
G01X-8182643Y2135042D02*
G01X-8182643Y1935042D01*
G01X-8182643Y1935042D02*
G01X-8382643Y1935042D01*
G01X-8382643Y1935042D02*
G01X-8382643Y2135042D01*
G01X-8382643Y2135042D02*
G01X-8182643Y2135042D01*
G01X-7183344Y2160442D02*
G01X-7183344Y1960442D01*
G01X-7183344Y1960442D02*
G01X-7383343Y1960442D01*
G01X-7383343Y1960442D02*
G01X-7383343Y2160442D01*
G01X-7383343Y2160442D02*
G01X-7183344Y2160442D01*

G04 Circle Start*
G01X-11145406Y4676191D02*
G03X-11085411Y4676191I29997J0D01*
G03X-11145406Y4676191I-29997J0D01*
G04 Circle End*

M02*

