G04 Layer: TopSolderMaskLayer*
G04 EasyEDA Pro v2.2.37.7, 2025-04-12 19:39:53*
G04 Gerber Generator version 0.3*
G04 Scale: 100 percent, Rotated: No, Reflected: No*
G04 Dimensions in millimeters*
G04 Leading zeros omitted, absolute positions, 4 integers and 5 decimals*
%FSLAX45Y45*%
%MOMM*%
%AMRoundRect*1,1,$1,$2,$3*1,1,$1,$4,$5*1,1,$1,0-$2,0-$3*1,1,$1,0-$4,0-$5*20,1,$1,$2,$3,$4,$5,0*20,1,$1,$4,$5,0-$2,0-$3,0*20,1,$1,0-$2,0-$3,0-$4,0-$5,0*20,1,$1,0-$4,0-$5,$2,$3,0*4,1,4,$2,$3,$4,$5,0-$2,0-$3,0-$4,0-$5,$2,$3,0*%
%ADD10RoundRect,0.09516X-0.70322X0.70322X0.70322X0.70322*%
%ADD11RoundRect,0.09138X-0.40835X0.43712X0.40835X0.43712*%
%ADD12RoundRect,0.09138X-0.43712X-0.40835X-0.43712X0.40835*%
%ADD13C,1.397*%
%ADD14RoundRect,0.09471X0.65114X-0.65114X-0.65114X-0.65114*%
%ADD15RoundRect,0.09412X-1.25294X0.75294X1.25294X0.75294*%
%ADD16C,2.1016*%
%ADD17RoundRect,0.09669X-1.50245X-0.95245X-1.50245X0.95245*%
%ADD18C,1.6256*%
%ADD19C,2.6016*%
G75*


G04 Pad Start*
G54D10*
G01X-6933844Y2051501D03*
G01X-6302845Y2051742D03*
G01X-5959945Y2055502D03*
G01X-6598945Y2043741D03*
G01X-9552643Y2051501D03*
G01X-6083300Y2552700D03*
G54D11*
G01X-9030564Y2032000D03*
G01X-9181236Y2032000D03*
G01X-8586064Y2032000D03*
G01X-8736736Y2032000D03*
G01X-9887735Y2047722D03*
G01X-10038408Y2047722D03*
G54D12*
G01X-7886700Y2170836D03*
G01X-7886700Y2020164D03*
G01X-7569200Y2170836D03*
G01X-7569200Y2020164D03*
G54D13*
G01X-6045200Y4483100D03*
G01X-6299200Y4483100D03*
G01X-6553200Y4483100D03*
G54D14*
G01X-6807200Y4483100D03*
G54D15*
G01X-10935398Y4586199D03*
G01X-10935398Y4386199D03*
G01X-10935398Y4186199D03*
G01X-10935398Y3986200D03*
G01X-10935398Y3786200D03*
G01X-10935398Y3586201D03*
G01X-10935398Y3386201D03*
G01X-10935398Y3186201D03*
G01X-9435401Y3186201D03*
G01X-9435401Y3386201D03*
G01X-9435401Y3586201D03*
G01X-9435401Y3786200D03*
G01X-9435401Y3986200D03*
G01X-9435401Y4186199D03*
G01X-9435401Y4386199D03*
G01X-9435401Y4586199D03*
G54D16*
G01X-10668000Y2463800D03*
G01X-10922000Y2717800D03*
G01X-10922000Y2209800D03*
G01X-10414000Y2209800D03*
G01X-10414000Y2717800D03*
G54D17*
G01X-7336102Y3035303D03*
G01X-7336102Y3289300D03*
G01X-7336102Y3543300D03*
G01X-7336102Y3797300D03*
G01X-7336102Y4051300D03*
G01X-7336102Y4305300D03*
G01X-7336102Y4559297D03*
G01X-8996096Y4559297D03*
G01X-8996096Y4305300D03*
G01X-8996096Y4051300D03*
G01X-8996096Y3797300D03*
G01X-8996096Y3543300D03*
G01X-8996096Y3289300D03*
G01X-8996096Y3035303D03*
G54D18*
G01X-6600795Y3731804D03*
G01X-6400795Y3731804D03*
G01X-6200795Y3731804D03*
G01X-6600795Y3481817D03*
G01X-6400795Y3481817D03*
G01X-6200795Y3481817D03*
G54D19*
G01X-6910802Y3606810D03*
G01X-5890788Y3606810D03*
G54D10*
G01X-8282643Y2035042D03*
G01X-7283343Y2060442D03*
G04 Pad End*

M02*

