G04 Layer: TopLayer*
G04 EasyEDA Pro v2.2.37.7, 2025-04-12 19:39:53*
G04 Gerber Generator version 0.3*
G04 Scale: 100 percent, Rotated: No, Reflected: No*
G04 Dimensions in millimeters*
G04 Leading zeros omitted, absolute positions, 4 integers and 5 decimals*
%FSLAX45Y45*%
%MOMM*%
%ADD10R,1.4X1.4*%
%ADD11R,0.80648X0.86401*%
%ADD12R,0.86401X0.80648*%
%ADD13C,1.2954*%
%ADD14R,1.2954X1.2954*%
%ADD15R,2.49999X1.5*%
%ADD16C,2.0*%
%ADD17R,2.99999X1.9*%
%ADD18C,1.524*%
%ADD19C,2.49999*%
%ADD20C,0.61*%
%ADD21C,0.254*%
G75*


G04 Pad Start*
G54D10*
G01X-6933844Y2051501D03*
G01X-6302845Y2051742D03*
G01X-5959945Y2055502D03*
G01X-6598945Y2043741D03*
G01X-9552643Y2051501D03*
G01X-6083300Y2552700D03*
G54D11*
G01X-9030564Y2032000D03*
G01X-9181236Y2032000D03*
G01X-8586064Y2032000D03*
G01X-8736736Y2032000D03*
G01X-9887735Y2047722D03*
G01X-10038408Y2047722D03*
G54D12*
G01X-7886700Y2170836D03*
G01X-7886700Y2020164D03*
G01X-7569200Y2170836D03*
G01X-7569200Y2020164D03*
G54D13*
G01X-6045200Y4483100D03*
G01X-6299200Y4483100D03*
G01X-6553200Y4483100D03*
G54D14*
G01X-6807200Y4483100D03*
G54D15*
G01X-10935398Y4586199D03*
G01X-10935398Y4386199D03*
G01X-10935398Y4186199D03*
G01X-10935398Y3986200D03*
G01X-10935398Y3786200D03*
G01X-10935398Y3586201D03*
G01X-10935398Y3386201D03*
G01X-10935398Y3186201D03*
G01X-9435401Y3186201D03*
G01X-9435401Y3386201D03*
G01X-9435401Y3586201D03*
G01X-9435401Y3786200D03*
G01X-9435401Y3986200D03*
G01X-9435401Y4186199D03*
G01X-9435401Y4386199D03*
G01X-9435401Y4586199D03*
G54D16*
G01X-10668000Y2463800D03*
G01X-10922000Y2717800D03*
G01X-10922000Y2209800D03*
G01X-10414000Y2209800D03*
G01X-10414000Y2717800D03*
G54D17*
G01X-7336102Y3035303D03*
G01X-7336102Y3289300D03*
G01X-7336102Y3543300D03*
G01X-7336102Y3797300D03*
G01X-7336102Y4051300D03*
G01X-7336102Y4305300D03*
G01X-7336102Y4559297D03*
G01X-8996096Y4559297D03*
G01X-8996096Y4305300D03*
G01X-8996096Y4051300D03*
G01X-8996096Y3797300D03*
G01X-8996096Y3543300D03*
G01X-8996096Y3289300D03*
G01X-8996096Y3035303D03*
G54D18*
G01X-6600795Y3731804D03*
G01X-6400795Y3731804D03*
G01X-6200795Y3731804D03*
G01X-6600795Y3481817D03*
G01X-6400795Y3481817D03*
G01X-6200795Y3481817D03*
G54D19*
G01X-6910802Y3606810D03*
G01X-5890788Y3606810D03*
G54D10*
G01X-8282643Y2035042D03*
G01X-7283343Y2060442D03*
G04 Pad End*

G04 Via Start*
G54D20*
G01X-8736736Y2209800D03*
G01X-8838336Y2311400D03*
G01X-9614598Y3560801D03*
G01X-8784298Y3543300D03*
G01X-8812936Y2159000D03*
G01X-8914536Y2260600D03*
G01X-9673298Y3543300D03*
G01X-8708098Y3543300D03*
G01X-8736736Y2133600D03*
G01X-8939936Y2336800D03*
G01X-9741598Y3560801D03*
G01X-8631898Y3543300D03*
G04 Via End*

G04 Track Start*
G54D21*
G01X-9883955Y2051501D02*
G01X-9887735Y2047722D01*
G01X-8586064Y2032000D02*
G01X-8285685Y2032000D01*
G01X-8282643Y2035042D01*
G01X-9435401Y3186201D02*
G01X-10157803Y2463800D01*
G01X-10668000Y2463800D01*
G01X-9435401Y3386201D02*
G01X-9745599Y3386201D01*
G01X-8838336Y2311400D02*
G01X-8838336Y2877543D01*
G01X-9181236Y3403600D02*
G01X-9054236Y3530600D01*
G01X-9008796Y3530600D02*
G01X-8996096Y3543300D01*
G01X-9054236Y3530600D02*
G01X-9257436Y3733800D01*
G01X-9257436Y3860800D01*
G01X-9382836Y3986200D02*
G01X-9435401Y3986200D01*
G01X-8996096Y3543300D02*
G01X-8869096Y3670300D01*
G01X-7167296Y3670300D01*
G01X-6807200Y4030396D02*
G01X-6807200Y4483100D01*
G01X-6302845Y3383867D02*
G01X-6400795Y3481817D01*
G01X-9435401Y4186199D02*
G01X-9384601Y4186199D01*
G01X-9206801Y4008399D01*
G01X-9206801Y3975100D02*
G01X-9156001Y3924300D01*
G01X-7463102Y3924300D02*
G01X-7336102Y3797300D01*
G01X-6553200Y4483100D02*
G01X-6654800Y4584700D01*
G01X-7310699Y4584700D02*
G01X-7336102Y4559297D01*
G01X-7569200Y2170836D02*
G01X-7442200Y2170836D01*
G01X-7292138Y2069236D02*
G01X-7283343Y2060442D01*
G01X-7315200Y2069236D02*
G01X-7137400Y2247036D01*
G01X-7137400Y3136036D02*
G01X-7162800Y3161436D01*
G01X-7493000Y3161436D01*
G01X-7620000Y3288436D01*
G01X-8995232Y3288436D02*
G01X-8996096Y3289300D01*
G01X-7620000Y3313836D02*
G01X-7518400Y3415436D01*
G01X-7162800Y3415436D01*
G01X-7086600Y3491636D01*
G01X-7086600Y3669436D01*
G01X-6375400Y4380636D01*
G01X-7569200Y2170836D02*
G01X-7645400Y2247036D01*
G01X-8509000Y2247036D01*
G01X-8661400Y2094636D01*
G01X-8686800Y1942236D02*
G01X-10337800Y1942236D01*
G01X-10820400Y2424836D01*
G01X-10820400Y2551836D02*
G01X-10769600Y2602636D01*
G01X-10769600Y3020403D01*
G01X-8027261Y3035303D02*
G01X-7336102Y3035303D01*
G01X-10935398Y4386199D02*
G01X-10020998Y4386199D01*
G01X-9614598Y4792599D01*
G01X-8877998Y4792599D01*
G01X-8750998Y4665599D01*
G01X-8750998Y4259199D01*
G01X-8954198Y4055999D01*
G01X-8991397Y4055999D01*
G01X-10935398Y3786200D02*
G01X-10478198Y3786200D01*
G01X-9563798Y4700600D01*
G01X-9137399Y4700600D02*
G01X-8996096Y4559297D01*
G01X-9639998Y3586201D02*
G01X-9614598Y3560801D01*
G01X-10935398Y3986200D02*
G01X-10351198Y3986200D01*
G01X-9589198Y4748200D01*
G01X-8894496Y4748200D02*
G01X-8792896Y4646600D01*
G01X-8792896Y4457700D01*
G01X-8945296Y4305300D01*
G01X-8996096Y4305300D01*
G01X-7886700Y2170836D02*
G01X-7719873Y2170836D01*
G01X-7569200Y2020164D01*
G01X-7082102Y2075462D02*
G01X-7082102Y3142262D01*
G01X-8736736Y2082800D02*
G01X-8812936Y2159000D01*
G01X-8914536Y2260600D02*
G01X-8914536Y2953743D01*
G01X-9716198Y3586201D02*
G01X-9673298Y3543300D01*
G01X-7493000Y1943964D02*
G01X-7213600Y1943964D01*
G01X-7086600Y3163164D02*
G01X-7212736Y3289300D01*
G01X-8838336Y2877543D02*
G01X-8914536Y2953743D01*
G01X-9716198Y3586201D02*
G01X-9639998Y3586201D01*
G01X-8784298Y3543300D02*
G01X-8708098Y3543300D01*
G01X-7086600Y2070964D02*
G01X-7082102Y2075462D01*
G01X-7082102Y3142262D02*
G01X-7086600Y3146760D01*
G01X-7229140Y3289300D01*
G01X-9552643Y2051501D02*
G01X-9883955Y2051501D01*
G01X-9745599Y3386201D02*
G01X-10414000Y2717800D01*
G01X-8939936Y2336800D02*
G01X-8939936Y2979143D01*
G01X-9181236Y2032000D02*
G01X-9181236Y3403600D01*
G01X-9054236Y3530600D02*
G01X-9008796Y3530600D01*
G01X-9257436Y3860800D02*
G01X-9382836Y3986200D01*
G01X-7167296Y3670300D02*
G01X-6807200Y4030396D01*
G01X-6302845Y2051742D02*
G01X-6302845Y3383867D01*
G01X-9206801Y4008399D02*
G01X-9206801Y3975100D01*
G01X-9156001Y3924300D02*
G01X-7463102Y3924300D01*
G01X-6654800Y4584700D02*
G01X-7310699Y4584700D01*
G01X-7442200Y2170836D02*
G01X-7340600Y2069236D01*
G01X-7137400Y2247036D02*
G01X-7137400Y3136036D01*
G01X-7620000Y3288436D02*
G01X-8995232Y3288436D01*
G01X-7620000Y3288436D02*
G01X-7620000Y3313836D01*
G01X-6375400Y4380636D02*
G01X-6147664Y4380636D01*
G01X-6045200Y4483100D01*
G01X-8661400Y2094636D02*
G01X-8661400Y1967636D01*
G01X-8686800Y1942236D01*
G01X-10820400Y2424836D02*
G01X-10820400Y2551836D01*
G01X-10769600Y3020403D02*
G01X-10935398Y3186201D01*
G01X-9030564Y2032000D02*
G01X-8027261Y3035303D01*
G01X-8991397Y4055999D02*
G01X-8996096Y4051300D01*
G01X-9563798Y4700600D02*
G01X-9137399Y4700600D01*
G01X-9766998Y3586201D02*
G01X-9741598Y3560801D01*
G01X-9589198Y4748200D02*
G01X-8894496Y4748200D01*
G01X-8736736Y2032000D02*
G01X-8736736Y2082800D01*
G01X-8736736Y2133600D01*
G01X-8736736Y2209800D01*
G01X-8914536Y2953743D02*
G01X-8939936Y2979143D01*
G01X-8996096Y3035303D01*
G01X-7340600Y2069236D02*
G01X-7315200Y2069236D01*
G01X-7292138Y2069236D01*
G01X-10935398Y3586201D02*
G01X-9766998Y3586201D01*
G01X-9716198Y3586201D01*
G01X-8708098Y3543300D02*
G01X-8631898Y3543300D01*
G01X-7336102Y3543300D01*
G01X-7497498Y1943964D02*
G01X-7493000Y1943964D01*
G01X-7213600Y1943964D02*
G01X-7209102Y1943964D01*
G01X-7086600Y2070964D02*
G01X-7086600Y3146760D01*
G01X-7086600Y3163164D01*
G01X-7212736Y3289300D02*
G01X-7229140Y3289300D01*
G01X-7336102Y3289300D01*
G01X-7569200Y2020164D02*
G01X-7493000Y1943964D01*
G01X-7213600Y1943964D02*
G01X-7086600Y2070964D01*
G04 Track End*

M02*

