G04 Layer: TopPasteMaskLayer*
G04 EasyEDA Pro v2.2.37.7, 2025-04-12 19:39:53*
G04 Gerber Generator version 0.3*
G04 Scale: 100 percent, Rotated: No, Reflected: No*
G04 Dimensions in millimeters*
G04 Leading zeros omitted, absolute positions, 4 integers and 5 decimals*
%FSLAX45Y45*%
%MOMM*%
%ADD10R,2.49999X1.5*%
%ADD11R,2.99999X1.9*%
G75*


G04 PolygonModel Start*
G36*
G01X-8986398Y2076999D02*
G01X-9066398Y2076999D01*
G01X-9071399Y2071997D01*
G01X-9071399Y2049201D01*
G01X-9034399Y2049201D01*
G01X-9034399Y2016201D01*
G01X-9071399Y2016201D01*
G01X-9071399Y1991998D01*
G01X-9066398Y1986999D01*
G01X-8986398Y1986999D01*
G01X-8981399Y1991998D01*
G01X-8981399Y2071997D01*
G01X-8986398Y2076999D01*
G37*
G36*
G01X-9225402Y1987001D02*
G01X-9145402Y1987001D01*
G01X-9140401Y1992003D01*
G01X-9140401Y2014799D01*
G01X-9177401Y2014799D01*
G01X-9177401Y2047799D01*
G01X-9140401Y2047799D01*
G01X-9140401Y2072002D01*
G01X-9145402Y2077001D01*
G01X-9225402Y2077001D01*
G01X-9230401Y2072002D01*
G01X-9230401Y1992003D01*
G01X-9225402Y1987001D01*
G37*
G36*
G01X-8541898Y2076999D02*
G01X-8621898Y2076999D01*
G01X-8626899Y2071997D01*
G01X-8626899Y2049201D01*
G01X-8589899Y2049201D01*
G01X-8589899Y2016201D01*
G01X-8626899Y2016201D01*
G01X-8626899Y1991998D01*
G01X-8621898Y1986999D01*
G01X-8541898Y1986999D01*
G01X-8536899Y1991998D01*
G01X-8536899Y2071997D01*
G01X-8541898Y2076999D01*
G37*
G36*
G01X-8780902Y1987001D02*
G01X-8700902Y1987001D01*
G01X-8695901Y1992003D01*
G01X-8695901Y2014799D01*
G01X-8732901Y2014799D01*
G01X-8732901Y2047799D01*
G01X-8695901Y2047799D01*
G01X-8695901Y2072002D01*
G01X-8700902Y2077001D01*
G01X-8780902Y2077001D01*
G01X-8785901Y2072002D01*
G01X-8785901Y1992003D01*
G01X-8780902Y1987001D01*
G37*
G36*
G01X-9843569Y2092720D02*
G01X-9923569Y2092720D01*
G01X-9928570Y2087719D01*
G01X-9928570Y2064922D01*
G01X-9891570Y2064922D01*
G01X-9891570Y2031923D01*
G01X-9928570Y2031923D01*
G01X-9928570Y2007719D01*
G01X-9923569Y2002720D01*
G01X-9843569Y2002720D01*
G01X-9838571Y2007719D01*
G01X-9838571Y2087719D01*
G01X-9843569Y2092720D01*
G37*
G36*
G01X-10082573Y2002723D02*
G01X-10002573Y2002723D01*
G01X-9997572Y2007724D01*
G01X-9997572Y2030521D01*
G01X-10034572Y2030521D01*
G01X-10034572Y2063520D01*
G01X-9997572Y2063520D01*
G01X-9997572Y2087724D01*
G01X-10002573Y2092723D01*
G01X-10082573Y2092723D01*
G01X-10087572Y2087724D01*
G01X-10087572Y2007724D01*
G01X-10082573Y2002723D01*
G37*
G36*
G01X-7931699Y2215002D02*
G01X-7931699Y2135002D01*
G01X-7926697Y2130001D01*
G01X-7903901Y2130001D01*
G01X-7903901Y2167001D01*
G01X-7870901Y2167001D01*
G01X-7870901Y2130001D01*
G01X-7846698Y2130001D01*
G01X-7841699Y2135002D01*
G01X-7841699Y2215002D01*
G01X-7846698Y2220001D01*
G01X-7926697Y2220001D01*
G01X-7931699Y2215002D01*
G37*
G36*
G01X-7841701Y1975998D02*
G01X-7841701Y2055998D01*
G01X-7846703Y2060999D01*
G01X-7869499Y2060999D01*
G01X-7869499Y2023999D01*
G01X-7902499Y2023999D01*
G01X-7902499Y2060999D01*
G01X-7926702Y2060999D01*
G01X-7931701Y2055998D01*
G01X-7931701Y1975998D01*
G01X-7926702Y1970999D01*
G01X-7846703Y1970999D01*
G01X-7841701Y1975998D01*
G37*
G36*
G01X-7614199Y2215002D02*
G01X-7614199Y2135002D01*
G01X-7609197Y2130001D01*
G01X-7586401Y2130001D01*
G01X-7586401Y2167001D01*
G01X-7553401Y2167001D01*
G01X-7553401Y2130001D01*
G01X-7529198Y2130001D01*
G01X-7524199Y2135002D01*
G01X-7524199Y2215002D01*
G01X-7529198Y2220001D01*
G01X-7609197Y2220001D01*
G01X-7614199Y2215002D01*
G37*
G36*
G01X-7524201Y1975998D02*
G01X-7524201Y2055998D01*
G01X-7529203Y2060999D01*
G01X-7551999Y2060999D01*
G01X-7551999Y2023999D01*
G01X-7584999Y2023999D01*
G01X-7584999Y2060999D01*
G01X-7609202Y2060999D01*
G01X-7614201Y2055998D01*
G01X-7614201Y1975998D01*
G01X-7609202Y1970999D01*
G01X-7529203Y1970999D01*
G01X-7524201Y1975998D01*
G37*

G04 Pad Start*
G54D10*
G01X-10935398Y4586199D03*
G01X-10935398Y4386199D03*
G01X-10935398Y4186199D03*
G01X-10935398Y3986200D03*
G01X-10935398Y3786200D03*
G01X-10935398Y3586201D03*
G01X-10935398Y3386201D03*
G01X-10935398Y3186201D03*
G01X-9435401Y3186201D03*
G01X-9435401Y3386201D03*
G01X-9435401Y3586201D03*
G01X-9435401Y3786200D03*
G01X-9435401Y3986200D03*
G01X-9435401Y4186199D03*
G01X-9435401Y4386199D03*
G01X-9435401Y4586199D03*
G54D11*
G01X-7336102Y3035303D03*
G01X-7336102Y3289300D03*
G01X-7336102Y3543300D03*
G01X-7336102Y3797300D03*
G01X-7336102Y4051300D03*
G01X-7336102Y4305300D03*
G01X-7336102Y4559297D03*
G01X-8996096Y4559297D03*
G01X-8996096Y4305300D03*
G01X-8996096Y4051300D03*
G01X-8996096Y3797300D03*
G01X-8996096Y3543300D03*
G01X-8996096Y3289300D03*
G01X-8996096Y3035303D03*
G04 Pad End*

M02*

